<svg version="1.1" id="Layer_1" xmlns="http://www.w3.org/2000/svg" xmlns:xlink="http://www.w3.org/1999/xlink" x="0px" y="0px"
	 width="100%" viewBox="0 0 1024 1024" enable-background="new 0 0 1024 1024" xml:space="preserve">
<path fill="#000000" opacity="1.000000" stroke="none" 
	d="
M770.384033,756.451782 
	C747.886230,771.583313 723.419128,782.331360 699.869751,794.778564 
	C673.217102,808.865967 648.286987,825.427490 627.479858,847.514771 
	C611.757568,864.204407 600.245605,883.269775 596.746033,906.356018 
	C595.977722,911.424683 596.254578,916.651855 596.051392,921.806030 
	C595.974182,923.765015 596.503479,925.809021 595.202637,927.708252 
	C592.844971,928.415039 590.686218,927.286194 588.491455,926.719116 
	C561.936279,919.858276 538.328857,907.140137 516.918701,890.232117 
	C513.918457,887.862854 512.208252,888.025696 509.312469,890.319336 
	C487.102386,907.910950 462.489990,920.778503 434.838287,927.563843 
	C431.818878,928.304810 429.833557,928.293030 430.027008,924.472900 
	C431.899719,887.491394 413.182648,860.527100 387.535736,836.869446 
	C363.364655,814.573120 334.999664,798.881836 305.791046,784.445557 
	C288.765350,776.030640 271.745941,767.536743 256.083160,756.704651 
	C233.739349,741.252136 216.630936,721.853882 211.332016,694.220276 
	C206.377441,668.382507 211.433655,644.273010 224.900040,621.848816 
	C227.981049,616.718323 231.045364,611.518433 235.343002,607.246033 
	C236.582764,606.013550 237.533218,604.278809 239.927841,604.119202 
	C241.213943,608.312439 239.525955,612.362061 239.082138,616.314148 
	C236.936752,635.418335 241.995071,652.972351 250.085724,669.844116 
	C260.107666,690.743225 275.971405,706.807312 293.679413,721.265991 
	C320.663666,743.298889 351.374298,759.556946 380.902405,777.648438 
	C406.511871,793.338989 429.908173,811.594238 448.296021,835.675049 
	C449.164490,836.812378 449.862457,838.319519 452.051117,838.157410 
	C453.566711,834.696533 451.752350,831.455200 450.877136,828.280334 
	C446.388916,811.998962 439.785858,796.559509 432.047668,781.566956 
	C419.443268,757.146057 406.210358,733.034790 394.765137,708.035339 
	C382.442810,681.119873 372.973969,653.256714 369.989288,623.632080 
	C367.567413,599.593689 369.212769,575.941223 381.288116,554.262512 
	C394.513794,530.518677 415.135071,518.255127 442.152924,516.706238 
	C462.464844,515.541870 480.340240,521.273010 494.719543,536.152588 
	C503.018982,544.740723 508.073364,555.161560 511.157440,566.603394 
	C511.493500,567.850159 511.337097,569.322327 513.177307,570.116882 
	C515.295593,568.736389 514.991516,566.132874 515.626099,564.086487 
	C523.686096,538.094543 540.986328,522.400757 567.785583,517.587830 
	C604.936218,510.915894 640.140808,532.925537 651.278381,569.117310 
	C659.522522,595.906860 657.978210,622.656311 651.940369,649.470032 
	C644.704590,681.603943 630.634705,711.009216 615.733582,740.115234 
	C603.823303,763.379211 590.615784,786.014404 581.084412,810.455383 
	C578.114685,818.070740 575.686340,825.846436 573.843872,833.807861 
	C573.404175,835.707703 572.994812,837.602600 573.546509,839.549866 
	C575.234741,839.401733 575.705566,838.193115 576.343689,837.309021 
	C593.732788,813.219116 616.727783,795.531372 641.569336,779.890686 
	C666.235291,764.360474 691.958679,750.528137 715.781311,733.645874 
	C737.262268,718.423035 757.385437,701.711548 771.016357,678.731445 
	C783.906128,657.000793 791.197021,633.837036 785.834167,608.139038 
	C785.570251,606.874573 785.374695,605.499207 786.237183,603.981262 
	C789.026184,604.101135 790.418213,606.471680 791.783875,608.226501 
	C815.599548,638.828186 824.235107,672.495911 810.277771,709.751160 
	C802.790955,729.735168 787.942810,744.200317 770.384033,756.451782 
M473.540405,604.910706 
	C470.110077,598.792542 466.516571,592.796326 461.233154,588.025635 
	C450.792175,578.598083 436.936218,580.175110 428.690765,591.582825 
	C422.994324,599.464050 421.027130,608.501831 420.332611,617.874207 
	C419.032288,635.421387 422.445343,652.315735 428.070038,668.835449 
	C436.371277,693.216187 448.508881,715.831238 460.414032,738.534851 
	C480.589020,777.009521 502.345367,814.790222 511.489014,857.977844 
	C511.698730,858.968323 512.185974,859.870911 513.787048,859.757812 
	C514.034973,859.140564 514.448547,858.431396 514.607300,857.669128 
	C520.188782,830.874817 530.730347,805.906128 542.929749,781.599304 
	C557.421265,752.725708 573.714417,724.768250 587.135742,695.350525 
	C597.272522,673.131714 605.610718,650.377502 606.029846,625.498901 
	C606.229736,613.630737 604.563904,602.251038 597.786621,592.111511 
	C590.089111,580.595215 577.112122,578.492126 566.205322,587.018433 
	C561.395447,590.778564 557.772156,595.565796 554.850037,600.831543 
	C547.881531,613.389282 539.645081,625.104797 531.366821,636.798584 
	C529.627502,639.255432 527.678833,641.560974 525.217651,643.315735 
	C523.101990,644.824097 520.747192,645.622986 518.185791,644.350159 
	C515.644104,643.087097 515.503479,640.745789 515.644592,638.339111 
	C516.027222,631.812073 517.495361,625.429871 519.585327,619.329773 
	C523.785034,607.071411 522.348389,596.218140 512.807617,586.851562 
	C511.760284,588.501404 510.807465,590.714355 509.243835,592.339722 
	C503.130707,598.694214 503.404877,606.053772 505.401520,613.792480 
	C505.941833,615.886597 506.491089,617.983765 506.896515,620.106201 
	C508.110809,626.463318 510.394867,632.646423 510.279633,639.220520 
	C510.190399,644.312378 507.278412,646.163757 502.689514,644.085754 
	C499.075623,642.449341 496.662476,639.408447 494.379364,636.317261 
	C487.051697,626.395996 480.144257,616.191711 473.540405,604.910706 
z"/>
<path fill="#000000" opacity="1.000000" stroke="none" 
	d="
M664.484314,880.485474 
	C650.998474,894.223938 641.267212,909.628113 638.383301,928.677246 
	C638.004395,931.179993 636.877197,932.291626 634.506897,932.158386 
	C628.195251,931.803528 621.886047,931.399109 615.579956,930.955566 
	C611.707092,930.683228 611.505493,928.064514 611.484070,924.916626 
	C611.310669,899.415039 622.019104,878.487976 639.027710,860.474304 
	C658.858032,839.472351 683.119324,824.592346 708.779846,811.901794 
	C734.447388,799.207703 760.730530,787.683289 784.743530,771.877686 
	C808.161133,756.464111 825.841614,736.634888 832.946960,708.681274 
	C833.696960,705.730530 832.767883,702.261536 835.592773,699.396301 
	C838.299072,705.464355 839.104370,711.701172 839.766479,717.864502 
	C842.654114,744.744934 839.441711,770.419983 823.371948,793.144226 
	C815.235291,804.650330 804.196777,812.895630 791.947571,819.664917 
	C772.438171,830.446594 751.317993,837.177124 730.323303,844.167480 
	C706.220520,852.192749 683.771729,863.073120 664.484314,880.485474 
z"/>
<path fill="#000000" opacity="1.000000" stroke="none" 
	d="
M187.342865,755.381775 
	C183.792511,736.399963 184.440903,718.077148 190.114166,699.657043 
	C192.928452,701.640686 192.016113,704.237061 192.510941,706.375366 
	C197.118286,726.284546 207.149139,742.954407 222.058990,756.888000 
	C239.225250,772.930237 259.832031,783.484863 280.476349,793.967590 
	C302.440765,805.120728 325.095673,814.930115 345.977936,828.169434 
	C366.655609,841.279053 386.051727,855.772278 399.600769,876.724976 
	C409.120941,891.447327 414.820282,907.313904 414.410583,925.134094 
	C414.319611,929.090820 413.148560,931.016418 409.107025,931.140503 
	C403.617554,931.309082 398.133667,931.665405 392.648346,931.959167 
	C389.931366,932.104675 388.261200,931.131531 387.798126,928.198975 
	C383.628204,901.790405 367.375366,883.619812 346.711090,868.637512 
	C332.299438,858.188599 316.120667,851.117004 299.420715,845.225525 
	C279.810394,838.307373 259.793549,832.495972 241.041275,823.278625 
	C222.400833,814.116272 206.406860,802.067139 196.643021,783.130920 
	C192.190765,774.496094 189.104858,765.382935 187.342865,755.381775 
z"/>
<path fill="#000000" opacity="1.000000" stroke="none" 
	d="
M214.764847,410.534241 
	C217.708160,410.755798 220.455521,410.709320 220.194656,414.463776 
	C219.938950,418.143738 217.039795,417.244598 214.903214,417.263062 
	C206.131287,417.338837 197.319977,416.479950 188.843826,419.049255 
	C186.493820,415.394196 188.822311,411.356232 186.775528,408.015930 
	C186.143875,408.328186 185.541626,408.424194 185.311234,408.768799 
	C175.146896,423.972839 147.756317,425.495911 131.687515,406.492828 
	C114.346779,385.985596 116.135590,345.880096 135.316589,327.261749 
	C145.752533,317.131927 158.454468,313.982086 172.644897,316.784424 
	C177.868805,317.816040 182.128784,320.664154 185.715347,324.491089 
	C187.314209,323.725983 186.764603,322.388550 186.767731,321.386688 
	C186.799942,311.063873 186.881973,300.738159 186.679352,290.418610 
	C186.513062,281.947876 184.166321,279.218231 176.023788,277.410065 
	C174.385437,277.046265 173.103195,276.688019 173.135284,274.733521 
	C173.168365,272.719025 174.166672,271.645355 176.235489,271.708923 
	C186.054947,272.010742 195.811813,271.401855 205.209564,269.283936 
	C206.904907,271.462250 206.352966,273.531891 206.353958,275.470001 
	C206.373672,314.266296 206.359421,353.062592 206.346375,391.858887 
	C206.345245,395.189026 206.485580,398.477173 207.167191,401.777832 
	C208.049347,406.049713 210.035156,409.172699 214.764847,410.534241 
M142.329895,353.780151 
	C140.985947,363.051880 140.912415,372.308472 142.296463,381.600281 
	C143.573502,390.173523 146.144775,398.215271 152.192444,404.604431 
	C161.696198,414.644928 176.772049,412.436890 183.166718,400.234802 
	C185.430267,395.915527 186.836304,391.352539 186.823502,386.383484 
	C186.786194,371.898041 186.863953,357.412262 186.810547,342.926910 
	C186.803284,340.957184 186.526749,338.927002 185.995453,337.031158 
	C183.627716,328.581940 177.419662,324.690002 169.214233,323.508972 
	C161.184921,322.353302 152.887833,326.704010 148.664032,334.068939 
	C145.306137,339.924011 143.635132,346.350037 142.329895,353.780151 
z"/>
<path fill="#000000" opacity="1.000000" stroke="none" 
	d="
M627.887329,443.172180 
	C642.040405,450.891571 656.022522,449.916687 669.859375,443.555267 
	C675.238342,441.082397 678.544617,436.356232 680.300232,430.714050 
	C682.698975,423.004944 678.695740,416.207764 670.817322,414.399139 
	C662.583618,412.508942 654.220764,413.476227 645.914917,413.369293 
	C640.048523,413.293732 634.258240,412.962189 628.712219,410.928223 
	C620.020752,407.740662 616.633362,400.620270 619.446655,391.703552 
	C621.605286,384.861694 626.417664,380.222321 632.690857,376.386078 
	C627.581543,374.008453 622.814270,371.964905 619.238647,368.056244 
	C610.664001,358.683136 609.899658,347.690643 613.359680,336.265015 
	C616.820435,324.837097 625.856812,319.318237 636.862061,316.988556 
	C648.617188,314.500092 660.117615,315.086395 670.297546,322.550995 
	C672.945496,324.492676 674.517822,323.025696 676.270569,321.296906 
	C680.889771,316.740845 686.458862,314.379852 692.959229,314.758728 
	C701.690857,315.267639 706.484985,323.449554 702.752197,331.354736 
	C700.532227,336.056213 696.389526,336.899994 691.780151,336.235992 
	C687.402832,335.605377 685.036804,332.898376 684.699280,328.492401 
	C684.599182,327.185547 684.683838,325.864502 684.683838,324.514099 
	C678.383362,325.199585 677.003906,327.541046 678.947632,332.724030 
	C687.842834,356.443451 676.306885,375.934326 650.133362,378.241364 
	C645.369568,378.661285 640.821533,379.213562 637.225403,382.652740 
	C632.267029,387.394714 633.494751,392.637482 639.953979,394.770630 
	C642.206787,395.514648 644.506714,395.684357 646.853210,395.677917 
	C654.684875,395.656403 662.518250,395.566833 670.347961,395.692993 
	C682.569824,395.889832 693.014587,402.050507 695.958557,410.612488 
	C699.687866,421.458588 695.800476,434.136688 686.227966,442.054138 
	C677.619751,449.173950 667.585327,453.057556 656.572327,454.060608 
	C646.263733,454.999481 635.934326,454.686035 625.811340,452.118042 
	C620.590820,450.793671 615.710388,448.676453 611.633301,445.046997 
	C603.613953,437.907959 603.601135,426.731079 611.658508,419.681671 
	C614.544373,417.156769 617.687866,414.924957 621.255188,413.431885 
	C623.799011,412.367249 626.359924,411.920197 628.873779,414.774139 
	C624.497131,419.864136 619.163025,424.719788 620.563171,432.425232 
	C621.374573,436.890717 623.902832,440.347748 627.887329,443.172180 
M647.388245,322.450226 
	C639.923035,322.797516 635.553711,326.907684 633.423767,333.833832 
	C630.436401,343.548096 630.687561,353.178894 634.465149,362.585419 
	C636.945557,368.761810 642.107971,372.105988 647.992126,371.612976 
	C654.236267,371.089752 657.896606,367.161682 659.643311,361.520020 
	C662.242798,353.124115 662.282837,344.562744 660.743164,335.918671 
	C659.443542,328.622375 655.895813,323.664612 647.388245,322.450226 
z"/>
<path fill="#000000" opacity="1.000000" stroke="none" 
	d="
M690.537354,882.485474 
	C707.324585,870.018982 726.449219,863.828979 745.893799,858.351196 
	C767.597595,852.236877 788.859314,845.109863 807.063721,831.115967 
	C807.389099,830.865845 807.970520,830.948975 809.537842,830.703369 
	C798.662048,852.641663 782.345886,869.000977 764.534973,883.898743 
	C732.716858,910.512512 696.060120,926.143066 654.873657,930.926819 
	C652.910645,928.232422 654.482117,926.151672 655.306580,924.107544 
	C662.414062,906.485596 675.181213,893.617188 690.537354,882.485474 
z"/>
<path fill="#000000" opacity="1.000000" stroke="none" 
	d="
M267.028442,887.996704 
	C246.799713,872.218994 229.567642,854.288574 217.233963,832.232056 
	C218.331421,830.953918 218.944122,831.299438 219.470840,831.696533 
	C237.956070,845.634216 259.531250,852.636902 281.393036,858.691223 
	C304.283661,865.030396 325.925842,873.541382 343.995270,889.545410 
	C355.463959,899.703125 365.580719,910.848877 371.266571,925.380554 
	C371.909302,927.023254 373.076111,928.612366 372.006409,931.098022 
	C333.264191,926.254883 298.217346,912.360535 267.028442,887.996704 
z"/>
<path fill="#000000" opacity="1.000000" stroke="none" 
	d="
M741.202271,323.038513 
	C741.205566,326.098663 741.205566,328.703735 741.205566,332.338318 
	C744.098145,329.094940 745.904236,326.469055 748.268860,324.521301 
	C759.199341,315.517914 771.571960,313.559265 784.824280,318.150787 
	C794.499451,321.502899 799.295410,328.932892 800.304260,338.903046 
	C801.885132,354.525970 800.777222,370.196411 801.000549,385.843933 
	C801.074158,391.005859 800.960266,396.181580 801.307861,401.325592 
	C801.736206,407.665649 803.846375,409.768036 810.069641,410.771301 
	C812.309265,411.132385 814.486816,411.416718 814.304688,414.491028 
	C814.105652,417.849030 811.548340,417.277374 809.493408,417.285431 
	C797.665466,417.331970 785.837280,417.320953 774.009155,417.295898 
	C771.893311,417.291412 769.358582,417.726166 769.047546,414.565918 
	C768.754211,411.585968 770.944031,411.109680 773.219543,410.738495 
	C778.218689,409.923004 780.604858,406.987305 780.931030,401.873291 
	C781.738037,389.219574 781.082581,376.569183 781.060120,363.920563 
	C781.045654,355.784729 781.851685,347.689789 780.898193,339.489746 
	C779.064270,323.716919 766.138062,322.487518 756.756531,327.554749 
	C746.847778,332.906708 742.019165,342.382294 741.713135,353.116150 
	C741.248779,369.401001 740.676453,385.737762 742.018982,402.045532 
	C742.445801,407.230194 745.019165,409.919739 749.933899,410.743500 
	C752.187805,411.121277 754.369202,411.650818 754.086609,414.627747 
	C753.778687,417.871826 751.189819,417.288177 749.123169,417.294189 
	C737.295410,417.328583 725.467285,417.328491 713.639648,417.272156 
	C711.596924,417.262421 709.026550,417.860046 708.794006,414.512085 
	C708.580811,411.442291 710.719788,411.173706 712.983643,410.774780 
	C718.959045,409.721710 721.530151,407.147858 721.696289,401.097412 
	C722.286438,379.611206 722.183411,358.117035 721.639832,336.631409 
	C721.475342,330.129089 718.583923,326.889465 712.196716,325.556274 
	C709.748047,325.045135 707.922180,324.494263 708.325867,321.628113 
	C708.754395,318.585052 711.157593,319.434204 713.042236,319.550690 
	C720.416870,320.006348 727.654602,319.049530 734.855408,317.597717 
	C740.908813,316.377197 740.912048,316.393127 741.202271,323.038513 
z"/>
<path fill="#000000" opacity="1.000000" stroke="none" 
	d="
M502.390625,229.578140 
	C487.083160,237.351486 471.943298,237.040710 456.707581,230.617859 
	C454.101471,229.519211 451.524200,228.319885 449.041595,226.968643 
	C445.746735,225.175339 443.397552,225.275665 442.453583,229.501465 
	C441.942596,231.789093 440.883728,233.636627 438.050049,233.172516 
	C434.755707,232.633011 435.717651,229.952545 435.703918,227.999313 
	C435.621887,216.334183 435.592773,204.667297 435.728333,193.003113 
	C435.757141,190.526962 434.291229,186.848587 439.058899,186.708389 
	C443.397888,186.580795 442.914886,189.907715 443.316895,192.623001 
	C444.929443,203.514923 447.922699,213.803680 456.367188,221.604538 
	C463.960052,228.618683 478.534668,230.808624 487.845856,226.410217 
	C501.061554,220.167435 504.661713,200.952652 494.758148,189.505707 
	C489.202606,183.084396 481.911011,178.963654 474.827698,174.596786 
	C466.041351,169.180023 457.023590,164.175858 449.145355,157.347397 
	C437.332428,147.108643 432.858887,132.128464 437.746460,117.644272 
	C442.261749,104.263382 455.361115,95.352486 471.026947,94.648277 
	C480.675446,94.214546 489.527435,96.424637 497.648621,101.565041 
	C501.426849,103.956505 504.709656,104.963043 506.571106,99.460747 
	C507.347198,97.166695 509.326508,97.267921 511.136505,97.494354 
	C513.468079,97.786034 513.261108,99.748123 513.218262,101.381645 
	C512.943420,111.872231 512.613098,122.361359 512.311951,132.851288 
	C512.259949,134.664505 511.913849,136.155838 509.639221,136.271759 
	C507.373474,136.387207 505.829315,135.857758 505.414032,133.228821 
	C504.448334,127.115364 502.749542,121.210770 499.771942,115.728661 
	C493.903168,104.923492 484.015625,99.767738 471.936462,101.482979 
	C463.767456,102.642975 457.467743,106.574127 454.746490,114.761139 
	C451.657288,124.055107 453.784729,132.204010 460.964172,138.866486 
	C467.362396,144.803970 475.022003,148.952957 482.408264,153.466217 
	C490.507568,158.415176 498.942200,162.865585 506.357147,168.845917 
	C526.833679,185.360855 524.952393,216.011276 502.390625,229.578140 
z"/>
<path fill="#000000" opacity="1.000000" stroke="none" 
	d="
M601.067139,186.993164 
	C600.995422,175.170273 601.097717,163.841354 600.793274,152.523392 
	C600.575989,144.448624 598.820923,142.582153 590.887268,140.784363 
	C588.604126,140.266998 587.249023,139.438538 587.527649,136.843384 
	C587.837769,133.954376 589.888367,133.840775 591.918457,134.150497 
	C600.139954,135.404800 608.241150,134.388748 616.170105,132.468735 
	C620.745422,131.360809 621.262756,133.192123 621.248657,136.921005 
	C621.162292,159.739334 621.193359,182.558136 621.200745,205.376770 
	C621.201782,208.540955 621.184448,211.710770 621.357117,214.868073 
	C621.708374,221.292267 624.557739,224.576965 630.812866,225.744507 
	C633.134033,226.177765 635.080627,226.687164 634.853577,229.676697 
	C634.601868,232.992020 632.276001,232.462372 630.098083,232.403839 
	C620.967285,232.158325 611.815735,231.571426 602.693359,234.231812 
	C600.393738,229.426483 602.856628,224.300476 600.598755,219.813217 
	C598.740112,220.186310 598.307312,221.988052 597.346497,223.195877 
	C586.765991,236.497223 567.410767,239.494232 553.888977,229.847397 
	C546.214417,224.372192 543.974915,216.180313 543.779114,207.507065 
	C543.414551,191.358536 543.602417,175.196808 543.634399,159.040710 
	C543.640686,155.854813 543.299561,152.739502 542.706360,149.624588 
	C541.775635,144.737808 539.598755,141.238602 533.984985,141.097839 
	C531.323730,141.031082 529.439270,139.901840 529.785095,136.804855 
	C530.156250,133.481674 532.749817,134.117188 534.762024,134.327545 
	C542.475403,135.133911 550.029785,134.110748 557.556824,132.643204 
	C562.865173,131.608200 563.172302,131.838699 563.181091,137.445770 
	C563.218201,161.096725 563.239014,184.747711 563.317688,208.398529 
	C563.324280,210.374496 563.529785,212.391052 563.960938,214.317551 
	C566.474487,225.547943 575.865601,229.674301 585.944214,223.833420 
	C595.615967,218.228287 599.183777,208.845688 600.681580,198.466705 
	C601.201355,194.864883 600.960571,191.153275 601.067139,186.993164 
z"/>
<path fill="#000000" opacity="1.000000" stroke="none" 
	d="
M258.349304,356.000061 
	C258.353424,367.327515 258.419769,378.155426 258.328491,388.982056 
	C258.295746,392.865417 258.952759,396.593994 260.011261,400.281952 
	C262.580902,409.234894 270.483154,413.200531 279.156311,409.600494 
	C288.857086,405.573944 293.074371,397.226532 295.615234,387.713287 
	C297.144104,381.989197 296.792999,376.131531 296.641174,370.325348 
	C296.328308,358.359375 297.772461,346.335815 295.749451,334.432465 
	C294.679016,328.134216 292.636810,326.264160 286.298798,325.389587 
	C283.966400,325.067719 282.455536,324.480835 282.706116,321.795624 
	C282.979279,318.868713 285.219147,319.611542 286.877045,319.674835 
	C294.913666,319.981689 302.899078,319.251068 310.675293,317.466980 
	C315.747040,316.303406 316.304016,318.358154 316.284943,322.473480 
	C316.178497,345.460388 316.195221,368.448059 316.237915,391.435303 
	C316.244354,394.911774 316.111938,398.387421 316.963989,401.860596 
	C318.166931,406.764008 320.894562,409.935455 325.957672,410.608154 
	C328.549133,410.952423 330.060089,411.972656 329.841034,414.682922 
	C329.606750,417.581238 327.341064,417.311127 325.343933,417.307709 
	C316.084259,417.291962 306.786591,416.337799 297.788910,419.206146 
	C295.685028,414.266632 297.655884,409.594330 296.177216,405.350952 
	C293.954987,404.797028 293.583191,406.626953 292.745972,407.698242 
	C283.935608,418.971619 270.724976,423.064850 257.044891,418.799347 
	C248.246384,416.055969 243.311142,409.731781 240.865479,401.244629 
	C239.434555,396.278870 238.866119,391.138580 238.864426,385.947998 
	C238.859238,369.956909 238.906693,353.965118 238.773819,337.974976 
	C238.702942,329.445282 236.915894,327.313385 228.524841,325.360291 
	C226.484756,324.885437 225.703644,324.003113 225.711716,322.025909 
	C225.720322,319.918030 226.754623,318.818939 228.774521,319.058563 
	C238.455093,320.206848 247.952454,318.688263 258.349274,316.596008 
	C258.349274,329.985596 258.349274,342.742828 258.349304,356.000061 
z"/>
<path fill="#000000" opacity="1.000000" stroke="none" 
	d="
M392.967377,321.176392 
	C401.637695,298.249115 417.325226,284.159973 441.453064,280.246094 
	C455.153564,278.023651 467.948578,280.697784 479.748535,288.032776 
	C480.880249,288.736237 481.960938,289.521851 483.093628,290.223694 
	C488.474274,293.557739 489.774292,293.138062 491.539429,287.217407 
	C492.230072,284.900787 492.596680,282.440063 495.839081,282.852600 
	C499.526703,283.321716 498.284546,286.306213 498.291962,288.363251 
	C498.334015,300.028564 498.244720,311.694733 498.128693,323.359894 
	C498.108368,325.403107 498.682709,327.922791 495.346405,328.227692 
	C492.214050,328.513977 491.294739,326.541229 490.839203,324.052216 
	C490.090118,319.959412 489.256470,315.909698 487.955872,311.927643 
	C482.117310,294.052155 468.526398,286.479095 451.082764,285.721344 
	C436.298370,285.079071 425.540802,293.229462 419.458252,306.265167 
	C405.268463,336.675842 404.684387,367.312866 422.324188,396.487915 
	C436.259399,419.535828 467.228271,416.658997 479.944672,402.518402 
	C486.185669,395.578400 489.363739,387.331604 490.696411,378.238281 
	C490.985565,376.265289 491.386932,374.308960 491.692413,372.338104 
	C492.023315,370.203094 493.464630,369.781250 495.319427,369.801910 
	C497.400543,369.825134 498.394501,370.849365 498.354431,372.880920 
	C498.084961,386.549835 498.611603,400.200775 499.239929,413.850189 
	C499.325531,415.709930 498.789154,417.119873 496.567291,417.271454 
	C494.515656,417.411407 493.010315,416.877136 492.327484,414.711731 
	C491.438751,411.893402 490.962402,408.829315 488.303070,406.956451 
	C486.554840,406.800873 485.393677,407.891693 484.292297,408.826080 
	C458.891022,430.375366 405.716187,423.410431 391.788239,376.965790 
	C386.235870,358.450653 386.312805,339.900421 392.967377,321.176392 
z"/>
<path fill="#000000" opacity="1.000000" stroke="none" 
	d="
M98.579956,97.465004 
	C111.358406,97.512802 123.685867,97.513397 136.013306,97.496590 
	C137.902939,97.494019 140.265335,96.498360 140.441223,99.778229 
	C140.599960,102.738251 138.783051,103.166229 136.311554,103.437691 
	C127.638832,104.390266 125.369972,106.936783 125.359528,115.670685 
	C125.320679,148.159805 125.318283,180.649017 125.360641,213.138138 
	C125.373451,222.966110 128.049469,225.654678 137.755264,225.753296 
	C144.584961,225.822693 151.417862,225.808914 158.246613,225.684052 
	C169.519318,225.477936 176.899017,219.929840 180.595779,209.120392 
	C182.224274,204.358612 182.657837,199.365372 183.480118,194.453720 
	C183.862396,192.170349 184.537033,190.752167 187.168396,190.790924 
	C190.046249,190.833298 190.242691,192.649155 190.311188,194.813019 
	C190.679672,206.453598 189.558334,218.126190 191.078705,229.742996 
	C191.376678,232.019821 190.068512,232.517700 188.044586,232.512222 
	C156.724716,232.427460 125.404716,232.387085 94.084724,232.351608 
	C92.074409,232.349335 90.388039,231.999374 90.151611,229.565308 
	C89.914810,227.127396 91.533089,226.514252 93.478195,226.055878 
	C104.329277,223.498810 104.778191,223.104233 104.826904,211.808212 
	C104.959839,180.985992 104.974052,150.163162 104.964722,119.340591 
	C104.963821,116.369179 105.054680,113.346870 104.033623,110.442421 
	C102.559647,106.249626 99.738548,103.788170 95.257553,103.420204 
	C92.796913,103.218140 89.712532,103.684906 90.246620,99.766098 
	C90.743942,96.117012 93.732910,96.969170 96.160339,97.074509 
	C96.820190,97.103142 97.472954,97.295113 98.579956,97.465004 
z"/>
<path fill="#000000" opacity="1.000000" stroke="none" 
	d="
M264.999817,175.131439 
	C252.837845,175.136246 241.173843,175.252838 229.514603,175.068542 
	C225.469437,175.004593 223.967316,176.297760 223.925262,180.501175 
	C223.819824,191.040283 225.455643,200.970154 231.091873,210.145477 
	C242.321701,228.426788 265.675537,228.670868 277.073212,210.479324 
	C277.603394,209.633133 278.138550,208.779572 278.558655,207.876953 
	C279.623260,205.589554 281.176208,205.171402 283.430878,206.238342 
	C285.843109,207.379791 285.968262,209.169189 285.010590,211.205200 
	C282.147644,217.292114 278.433746,222.713913 273.148254,227.052917 
	C253.030975,243.567780 212.654831,236.456085 204.905655,199.492767 
	C201.582779,183.642746 202.895416,168.040054 210.291504,153.284622 
	C218.092072,137.722229 235.078934,129.498459 252.689026,131.136322 
	C275.982208,133.302765 284.634369,149.444321 285.369415,170.246140 
	C285.495941,173.826797 284.298767,175.423630 280.490601,175.223648 
	C275.505646,174.961884 270.497681,175.137527 264.999817,175.131439 
M229.556702,150.095932 
	C226.938965,155.808182 224.704712,161.603165 225.305054,168.534760 
	C237.437683,168.534760 249.207703,168.550476 260.977631,168.521912 
	C263.426300,168.515976 263.917664,166.805252 263.958099,164.784225 
	C264.079346,158.725677 263.223938,152.854858 260.622009,147.319458 
	C256.258057,138.035461 246.445801,135.110809 237.711319,140.554214 
	C234.240906,142.716995 231.749420,145.812363 229.556702,150.095932 
z"/>
<path fill="#000000" opacity="1.000000" stroke="none" 
	d="
M824.553833,380.130310 
	C821.885559,359.600647 824.852722,340.984344 840.130615,326.293091 
	C856.502930,310.549377 886.647400,312.683807 898.794983,330.197235 
	C904.319458,338.161987 905.399658,347.513641 905.844482,356.870361 
	C906.018127,360.523773 902.851135,360.222595 900.360168,360.231171 
	C884.193665,360.286896 868.027161,360.314758 851.860596,360.353668 
	C844.932800,360.370331 843.875183,361.282867 844.524475,368.112122 
	C845.230347,375.534821 845.716980,382.972046 848.878418,390.016083 
	C853.526917,400.373535 860.635498,407.581512 872.272339,408.541931 
	C883.897644,409.501373 892.291809,403.731934 898.372131,394.116821 
	C899.403137,392.486450 899.808167,389.600677 902.952026,390.706360 
	C906.536377,391.966949 905.996765,394.202789 904.676697,397.013153 
	C893.628845,420.534607 864.989929,427.780579 843.309570,412.415405 
	C832.316467,404.624390 826.750793,393.587891 824.553833,380.130310 
M880.346375,330.228821 
	C875.701294,320.956146 862.442566,320.879730 855.752380,327.431946 
	C848.547424,334.488434 846.070679,343.695557 845.604614,353.986237 
	C857.947327,353.986237 869.882202,354.010590 881.816895,353.965942 
	C884.238098,353.956879 884.734497,352.259613 884.739563,350.196228 
	C884.756042,343.468414 883.873291,336.938507 880.346375,330.228821 
z"/>
<path fill="#000000" opacity="1.000000" stroke="none" 
	d="
M785.976196,227.121643 
	C775.163757,218.795044 769.863037,207.741623 768.301514,194.872818 
	C766.200378,177.557007 767.981567,160.889771 778.867615,146.412735 
	C787.497742,134.935654 799.629150,130.842606 813.524841,131.131882 
	C816.502808,131.193878 819.524841,131.552689 822.431824,132.200058 
	C837.367798,135.526138 845.570618,144.727997 848.183411,160.930878 
	C848.633423,163.721527 848.874817,166.545685 849.219238,169.353531 
	C849.738892,173.589172 848.098206,175.303284 843.623535,175.245346 
	C827.631836,175.038208 811.635925,175.172195 795.641724,175.131195 
	C788.267944,175.112305 788.280334,175.117386 788.230408,182.672913 
	C788.171448,191.603409 789.186035,200.274307 793.604858,208.260071 
	C804.839722,228.563904 828.698364,229.396622 841.326294,209.910950 
	C841.688538,209.352051 842.096863,208.803925 842.346741,208.194580 
	C843.349548,205.749435 845.010193,204.902130 847.505371,205.958282 
	C850.170227,207.086273 849.472534,209.081711 848.712463,210.993271 
	C845.811646,218.288681 841.470154,224.481079 834.714783,228.724030 
	C822.432922,236.438065 809.496582,237.491760 795.993652,232.388794 
	C792.554443,231.089050 789.260925,229.497955 785.976196,227.121643 
M819.248962,140.138474 
	C811.346375,135.772903 802.132446,137.946381 796.495728,145.596893 
	C792.351868,151.221207 790.598694,157.782135 789.398499,164.524353 
	C788.928894,167.161789 789.848389,168.630005 792.791382,168.609055 
	C803.413208,168.533417 814.035645,168.533096 824.657837,168.529068 
	C826.592041,168.528336 827.926025,167.885849 827.950867,165.737396 
	C828.058167,156.445312 827.291870,147.426697 819.248962,140.138474 
z"/>
<path fill="#000000" opacity="1.000000" stroke="none" 
	d="
M538.221558,377.656433 
	C532.049683,362.861206 526.656677,348.155975 519.878723,334.029297 
	C517.892517,329.889709 515.941895,325.873505 510.648682,325.162567 
	C508.642059,324.893066 508.717041,323.189026 508.752686,321.654877 
	C508.790344,320.036407 509.731140,319.249756 511.236755,319.069122 
	C512.060059,318.970337 512.897888,318.967224 513.729309,318.965881 
	C524.891602,318.947601 536.053955,318.925751 547.216248,318.934326 
	C549.527405,318.936096 552.127075,318.549927 552.195068,322.151855 
	C552.256714,325.415863 549.971313,325.200745 547.758606,325.412231 
	C541.351501,326.024689 539.574219,328.550049 541.646118,335.356079 
	C543.434265,341.229980 545.961792,346.883820 548.253601,352.598358 
	C553.325745,365.245331 558.455261,377.869293 563.824768,391.154480 
	C566.585999,387.871368 567.398071,384.496613 568.583008,381.362549 
	C573.881531,367.348541 579.224854,353.348297 584.259827,339.238861 
	C587.671021,329.679718 585.572632,326.552734 575.549683,325.353577 
	C573.436218,325.100739 571.964661,324.538269 572.117432,322.111267 
	C572.260132,319.844543 573.670044,318.689270 575.773987,318.962219 
	C584.434265,320.085693 593.061584,319.374847 601.699951,318.781891 
	C603.499939,318.658295 605.061279,319.007111 605.227661,321.289215 
	C605.369690,323.236908 605.234802,324.947021 602.896606,325.601379 
	C598.843872,326.735504 596.756470,329.908112 594.936584,333.385681 
	C589.736389,343.323029 586.860779,354.164154 582.795105,364.541870 
	C573.868042,387.328186 565.184814,410.209961 556.345154,433.030701 
	C554.477051,437.853455 552.197205,442.452515 548.663696,446.373596 
	C542.283752,453.453430 534.346985,455.129669 525.468201,453.044678 
	C519.060242,451.539886 515.308899,444.971802 516.582336,438.276367 
	C517.668457,432.565979 522.359741,429.277069 528.794006,429.715149 
	C534.066895,430.074127 537.213379,433.437622 537.416443,438.770966 
	C537.511597,441.268860 536.976685,443.645660 535.845398,446.560608 
	C541.639282,444.961700 544.535400,441.184418 546.616638,436.799316 
	C549.113098,431.539520 551.166931,426.071289 553.498047,420.730682 
	C554.839417,417.657562 553.886841,414.879181 552.709045,412.079315 
	C547.931580,400.721954 543.155579,389.364014 538.221558,377.656433 
z"/>
<path fill="#000000" opacity="1.000000" stroke="none" 
	d="
M318.061462,182.013794 
	C309.126740,175.938980 302.664093,168.731537 302.655670,157.482635 
	C302.645081,143.358154 312.345001,132.875198 326.576569,131.687668 
	C336.040161,130.898010 345.232666,131.336288 353.365112,137.163788 
	C356.289337,139.259247 358.631378,138.893173 359.861359,135.133957 
	C360.525635,133.103729 361.564545,131.441833 364.139740,131.926407 
	C366.765686,132.420486 366.300446,134.563675 366.286346,136.290619 
	C366.219727,144.454254 366.090729,152.617889 365.902313,160.779648 
	C365.856415,162.767822 365.798370,164.877609 362.969910,165.188995 
	C360.344482,165.478027 359.461487,163.781311 358.784546,161.799973 
	C357.226410,157.239319 356.005768,152.569427 353.721588,148.262329 
	C349.283447,139.893478 339.609985,135.587265 330.432892,138.042984 
	C319.979370,140.840286 316.433563,152.279922 323.508392,160.509644 
	C326.725494,164.251938 331.156372,166.364624 335.268188,168.861359 
	C343.236145,173.699539 351.549683,177.957458 359.116699,183.467621 
	C375.838562,195.644196 374.161072,222.394165 356.059875,231.057953 
	C344.528931,236.577026 332.651123,237.080429 320.813232,231.702606 
	C318.695160,230.740387 316.660431,229.579498 314.644379,228.411667 
	C311.981293,226.869034 309.931458,226.807770 308.970520,230.314774 
	C308.346252,232.593201 306.800018,233.560944 304.451447,233.180496 
	C301.906250,232.768204 302.004395,230.745361 302.038879,228.941269 
	C302.229858,218.950531 301.672699,208.949966 302.512909,198.964798 
	C302.706421,196.664612 302.588959,194.684677 305.842865,194.666214 
	C308.986542,194.648376 309.929993,196.434570 310.163879,198.991150 
	C310.781555,205.742813 312.994995,211.982956 316.201721,217.882645 
	C320.853180,226.440323 330.064209,230.584061 339.447632,228.357651 
	C345.495056,226.922760 349.288635,223.133621 350.934540,217.100937 
	C352.887238,209.943619 350.022522,204.301041 345.156891,199.560257 
	C340.847748,195.361679 335.544983,192.426620 330.363373,189.393723 
	C326.339935,187.038757 322.359589,184.610153 318.061462,182.013794 
z"/>
<path fill="#000000" opacity="1.000000" stroke="none" 
	d="
M929.377502,164.204712 
	C925.659668,166.332520 923.744507,164.791245 922.841125,161.481949 
	C921.478516,156.490280 919.990295,151.562714 917.274109,147.098557 
	C912.820862,139.779404 903.657471,135.890747 895.294617,137.787567 
	C884.860840,140.154114 880.911560,151.616135 887.650574,159.994415 
	C889.662598,162.495819 892.193054,164.392212 894.933655,166.005310 
	C902.394531,170.396774 909.897034,174.717712 917.343872,179.132721 
	C927.265198,185.014709 934.611877,192.682816 935.233276,205.034378 
	C936.068848,221.639603 923.379456,234.239639 904.917725,235.295029 
	C895.973877,235.806320 887.717285,233.934616 880.148804,229.156158 
	C877.067871,227.210983 874.363220,226.037979 873.168945,231.051590 
	C872.682556,233.093384 871.011353,233.349533 869.213013,233.171173 
	C867.294189,232.980804 866.750122,231.677429 866.749084,230.027786 
	C866.742310,219.369934 866.754272,208.712067 866.771545,198.054214 
	C866.775269,195.752213 868.062988,194.861771 870.257874,194.775314 
	C872.870422,194.672363 873.804138,196.266022 874.120667,198.424683 
	C874.946167,204.054459 876.445251,209.505936 878.667297,214.721436 
	C882.778442,224.370972 889.783142,229.027313 899.570984,228.683624 
	C906.440063,228.442413 911.973572,225.678009 914.548584,219.015457 
	C917.184570,212.195053 915.761230,205.864761 910.647339,200.595810 
	C904.992737,194.769714 897.499207,191.592850 890.837341,187.215530 
	C886.386475,184.291031 881.780396,181.554657 877.593750,178.285904 
	C868.172241,170.930008 865.073669,160.563522 868.528259,149.304245 
	C871.787292,138.682571 879.963867,132.779190 891.989197,131.585602 
	C901.414917,130.650040 910.203918,131.513306 918.100830,137.311966 
	C920.857056,139.335831 923.230469,138.553070 924.257812,135.196564 
	C924.998962,132.775116 926.213623,131.230042 928.882874,131.984314 
	C931.585815,132.748093 930.895447,134.969757 930.683960,136.949966 
	C929.729126,145.891220 930.944885,154.918808 929.377502,164.204712 
z"/>
<path fill="#000000" opacity="1.000000" stroke="none" 
	d="
M724.403320,232.924713 
	C713.778748,228.139572 709.902527,219.442215 709.755188,208.963104 
	C709.467041,188.472977 709.619202,167.976593 709.599121,147.482788 
	C709.592651,140.934158 709.225037,140.532928 702.517212,140.403397 
	C700.019104,140.355164 697.518860,140.398727 695.019897,140.429016 
	C693.100220,140.452271 691.193909,140.465088 691.102112,137.812515 
	C691.007446,135.079025 692.449768,133.885956 695.097412,133.901978 
	C698.096191,133.920135 701.105164,133.734909 704.091736,133.923309 
	C708.121765,134.177521 709.846130,132.658463 709.681091,128.456390 
	C709.445923,122.468147 709.878662,116.451607 709.589355,110.468277 
	C709.397034,106.489540 711.215332,105.192421 714.743896,104.819115 
	C718.209290,104.452507 721.709839,104.013763 725.064270,103.117569 
	C728.424683,102.219780 729.262756,103.531273 729.241943,106.523926 
	C729.192139,113.688072 729.400330,120.857567 729.190491,128.015717 
	C729.061707,132.410065 730.953796,133.981277 735.145569,133.863708 
	C741.139465,133.695587 747.141541,133.841415 753.138733,133.755814 
	C755.799988,133.717819 757.793457,134.241241 757.769836,137.472198 
	C757.745605,140.786438 755.457336,140.470490 753.225342,140.452332 
	C747.061096,140.402161 740.896118,140.407349 734.731567,140.423050 
	C730.933838,140.432724 729.107178,141.969208 729.142456,146.175125 
	C729.325623,168.000580 729.217041,189.828278 729.322510,211.654663 
	C729.357971,218.987305 732.731995,224.189087 737.845520,225.459671 
	C742.963318,226.731308 748.562012,223.750092 752.317444,217.817245 
	C754.032227,215.108276 755.015625,212.112473 755.985046,209.096924 
	C756.691895,206.898407 758.308105,206.420380 760.341980,207.035858 
	C761.885986,207.503128 762.821350,208.282547 762.723083,210.247391 
	C762.147400,221.756622 753.044067,232.779251 741.906799,234.914261 
	C736.069214,236.033340 730.296875,235.352478 724.403320,232.924713 
z"/>
<path fill="#000000" opacity="1.000000" stroke="none" 
	d="
M675.331482,199.999146 
	C675.339233,205.496033 675.262878,210.495056 675.374573,215.489853 
	C675.523804,222.163254 677.895447,225.060898 684.368042,225.740005 
	C688.844971,226.209717 689.070435,228.441177 687.889587,231.887253 
	C687.384644,232.062332 686.928162,232.358337 686.471313,232.358994 
	C673.147949,232.377869 659.824585,232.358444 646.501221,232.370483 
	C644.372498,232.372406 642.401978,232.243393 642.147705,229.485580 
	C641.892639,226.719406 643.802246,226.263809 645.906189,225.868607 
	C653.813721,224.383240 655.660339,222.239639 655.679199,214.186768 
	C655.725159,194.531448 655.689331,174.875931 655.696838,155.220505 
	C655.697754,152.710785 655.495728,150.258423 654.701233,147.837265 
	C653.447144,144.015472 651.310669,141.417267 646.955444,141.246552 
	C644.492859,141.150024 642.025757,140.628799 642.224304,137.421478 
	C642.446838,133.828079 645.413940,134.627441 647.570862,134.685089 
	C655.094116,134.886124 662.575439,134.517075 669.853455,132.578690 
	C674.140625,131.436859 675.438660,132.658142 675.405334,137.035385 
	C675.246765,157.855713 675.332397,178.677872 675.331482,199.999146 
z"/>
<path fill="#000000" opacity="1.000000" stroke="none" 
	d="
M671.872925,89.864807 
	C677.580139,94.519928 679.130676,102.516068 675.656555,107.820465 
	C672.366028,112.844551 664.479797,114.864830 658.721497,112.158859 
	C652.500793,109.235603 649.809021,103.092491 651.810059,96.385918 
	C654.109741,88.678490 662.819702,85.713074 671.872925,89.864807 
z"/>
</svg>