<svg version="1.1" id="Layer_1" xmlns="http://www.w3.org/2000/svg" xmlns:xlink="http://www.w3.org/1999/xlink" x="0px" y="0px"
	 width="100%" viewBox="0 0 1024 1024" enable-background="new 0 0 1024 1024" xml:space="preserve">
<path fill="#000000" opacity="1.000000" stroke="none" 
	d="
M700.318970,744.283569 
	C723.283142,729.513489 744.657898,713.402710 761.660156,692.204712 
	C773.386902,677.584106 781.777039,661.170654 785.994202,642.891846 
	C788.595886,631.615417 788.701538,620.135803 785.902649,608.746155 
	C785.491760,607.074158 784.686218,605.274963 785.703491,603.169922 
	C789.574646,604.807007 792.115356,607.930359 794.518738,610.964783 
	C806.061035,625.537659 812.796204,642.208496 815.317078,660.567444 
	C821.108154,702.742310 803.718262,733.743896 769.277832,756.840942 
	C749.266968,770.260986 727.517578,780.370972 706.228271,791.377441 
	C676.326721,806.836487 647.872803,824.366394 625.180603,849.727661 
	C606.339111,870.785278 595.230896,895.171692 595.387573,923.965149 
	C595.393005,924.962769 595.413086,925.962830 595.349060,926.956726 
	C595.330505,927.245911 595.043579,927.517761 594.655945,928.179260 
	C564.125610,921.336792 537.326172,906.962769 513.261047,886.908569 
	C489.269257,907.157715 462.258240,921.180725 431.310089,928.280457 
	C429.978607,922.050537 430.842377,916.078186 430.116089,910.201599 
	C427.296722,887.388062 417.328766,868.042053 402.342438,851.014343 
	C385.986481,832.430603 366.408630,817.843689 345.201263,805.330383 
	C321.660095,791.440063 296.641785,780.307373 272.916473,766.760681 
	C252.748718,755.245239 234.599533,741.637878 222.089584,721.316528 
	C212.397385,705.572388 209.377991,688.551819 210.015488,670.641113 
	C210.737503,650.356201 217.092148,631.795776 228.754913,615.119080 
	C231.967636,610.525146 235.379272,606.116028 240.588791,602.731262 
	C241.333176,606.632263 239.738693,609.537231 239.272964,612.565552 
	C235.493835,637.139893 242.989075,658.993164 255.563248,679.493408 
	C269.433502,702.106689 289.261230,718.809631 310.607147,733.955994 
	C333.877594,750.468079 359.116943,763.807251 383.095276,779.177063 
	C405.197418,793.344177 426.247345,808.719604 442.995178,829.296448 
	C445.868896,832.827332 447.699799,837.320251 452.308868,840.064880 
	C453.510773,834.249451 451.806183,829.225891 450.313843,824.244873 
	C443.720551,802.237976 432.668610,782.221741 422.237274,761.940918 
	C408.149261,734.550720 393.136993,707.625427 382.848480,678.416565 
	C373.967651,653.204102 368.808563,627.427795 369.791443,600.643311 
	C370.571442,579.387634 376.035736,559.624390 389.455383,542.539307 
	C401.746735,526.890686 418.403076,519.202698 437.530273,516.939392 
	C454.857025,514.889099 471.391937,517.949097 485.944031,528.511108 
	C499.529724,538.371765 507.116699,551.921997 511.465363,567.890747 
	C514.421875,578.747498 512.813904,588.206421 506.124115,597.099487 
	C503.750854,600.254395 503.131653,603.772888 504.086487,607.929443 
	C506.421722,618.095215 510.704376,627.896118 510.290344,638.609863 
	C510.198303,640.990662 511.092346,643.973999 507.909546,645.045349 
	C504.761658,646.104919 502.113495,644.932678 499.851959,642.504639 
	C491.265991,633.286682 484.948120,622.485901 478.375671,611.868469 
	C474.431824,605.497498 470.897430,598.880005 466.152496,593.014465 
	C462.159576,588.078430 457.284668,584.299072 451.314636,582.395935 
	C443.020721,579.751892 436.250977,583.332825 430.699951,589.141907 
	C425.122070,594.979065 422.547699,602.359558 421.358368,610.280396 
	C418.344604,630.351990 421.458496,649.750122 427.961029,668.703186 
	C437.349884,696.069092 451.349213,721.284729 464.702423,746.805969 
	C479.904724,775.861328 495.921722,804.566406 505.590210,836.149963 
	C507.729645,843.138733 509.415466,850.267883 511.236389,857.351318 
	C511.565033,858.629883 511.474091,860.026428 512.976562,860.999634 
	C515.298584,860.147766 514.883911,857.725281 515.260742,856.031677 
	C520.206116,833.803711 528.249634,812.716003 538.091553,792.232971 
	C551.658264,763.997559 567.127075,736.744568 581.009644,708.676453 
	C590.847961,688.785156 599.831909,668.479797 603.986511,646.566406 
	C606.848572,631.470276 607.801392,616.119080 602.658752,601.129944 
	C600.738831,595.533936 597.848267,590.405029 593.159241,586.699829 
	C583.201965,578.831787 571.270813,580.483215 562.168274,590.843201 
	C557.085449,596.628174 553.169678,603.225525 549.322998,609.862305 
	C543.050537,620.684326 536.133789,631.070618 528.201355,640.759094 
	C527.463745,641.660034 526.712463,642.567932 525.854736,643.348633 
	C523.708130,645.302551 521.105957,645.986877 518.442017,644.919312 
	C515.862488,643.885437 515.710266,641.331726 515.789612,638.953857 
	C516.080505,630.233643 517.850281,621.745483 520.754089,613.577881 
	C523.216553,606.651489 523.052185,600.851013 518.474365,594.424500 
	C512.918396,586.624695 512.835266,577.315247 514.833130,567.977173 
	C521.215637,538.145386 546.932495,517.181091 577.334473,516.589111 
	C619.656982,515.764954 646.861389,542.084656 654.190369,581.893982 
	C659.148682,608.825806 656.229797,635.469299 648.885620,661.846375 
	C639.550781,695.373596 623.110168,725.662598 607.326111,756.289795 
	C596.647705,777.009949 585.169128,797.364929 577.623596,819.537537 
	C575.338928,826.251099 573.106262,833.083679 573.184204,840.710449 
	C575.856262,840.290833 576.675842,838.264771 577.688293,836.783508 
	C591.680420,816.312439 610.532776,801.052124 630.795593,787.372070 
	C653.304565,772.175598 676.828552,758.596375 700.318970,744.283569 
z"/>
<path fill="#000000" opacity="1.000000" stroke="none" 
	d="
M638.115845,862.134033 
	C657.004456,841.321838 680.023438,826.778442 704.353882,814.099609 
	C725.465881,803.097900 747.332581,793.612183 768.309326,782.321777 
	C787.593628,771.942322 804.992004,759.304993 817.940491,741.349182 
	C826.026794,730.135864 831.321533,717.641235 833.714111,703.965881 
	C834.018677,702.224792 834.239258,700.403687 835.680176,698.638123 
	C838.649353,705.545532 839.369995,712.710632 839.908936,719.723267 
	C841.306335,737.908508 840.552429,755.917114 834.096619,773.356079 
	C825.325806,797.048218 807.681396,811.995605 785.942383,822.944824 
	C765.948364,833.015137 744.439514,839.095154 723.391907,846.413879 
	C698.406738,855.101624 675.523132,867.360413 657.906738,887.792114 
	C647.587280,899.760681 640.441162,913.309509 638.346191,929.147461 
	C637.938477,932.229736 636.735291,933.151855 633.850952,932.846741 
	C628.402100,932.270264 622.945374,931.631165 617.476685,931.426636 
	C613.854797,931.291260 612.680847,929.635864 612.233948,926.284119 
	C610.266724,911.531738 614.994019,898.380615 621.565308,885.626221 
	C625.938965,877.137146 631.455872,869.447205 638.115845,862.134033 
z"/>
<path fill="#000000" opacity="1.000000" stroke="none" 
	d="
M213.709778,805.316040 
	C194.511841,786.980896 186.795654,764.180298 185.685043,738.660706 
	C185.183929,727.146057 186.259064,715.735107 188.670975,704.461365 
	C189.043610,702.719543 189.617493,701.020752 190.211029,698.899109 
	C192.480072,701.782654 192.374451,704.888611 192.996292,707.687317 
	C199.327194,736.181885 217.363922,756.017578 240.623230,771.831421 
	C258.588074,784.045532 278.278168,793.182373 297.882477,802.343445 
	C323.618866,814.369873 348.565796,827.770569 370.713745,845.620056 
	C390.364288,861.456726 405.657135,880.761292 412.570740,905.698975 
	C414.515472,912.713745 414.510956,919.845581 414.127594,927.007874 
	C414.003296,929.329773 413.224609,931.112305 410.348846,931.348511 
	C404.378754,931.838623 398.432129,932.471924 392.419098,932.370850 
	C389.582001,932.323242 388.112488,931.373474 387.780945,928.461670 
	C385.329163,906.928345 373.164917,890.956665 357.751617,877.062622 
	C340.226746,861.265198 319.237183,851.650757 297.109894,844.277039 
	C276.747070,837.491150 256.173828,831.264343 237.053650,821.249268 
	C228.761047,816.905701 221.121048,811.586853 213.709778,805.316040 
z"/>
<path fill="#000000" opacity="1.000000" stroke="none" 
	d="
M806.076599,831.153809 
	C809.327026,829.689331 809.299438,831.404358 808.373840,833.239990 
	C806.806763,836.348083 805.140015,839.446167 803.153687,842.296631 
	C779.702332,875.951111 748.684937,900.302429 711.176514,916.507019 
	C694.134949,923.869568 676.075378,927.733765 657.902283,931.066284 
	C656.621582,931.301147 655.265991,931.538330 653.425537,930.325562 
	C655.368652,923.135498 658.546631,916.301575 662.934937,910.118103 
	C679.577393,886.666809 702.490051,872.050232 729.554871,863.436096 
	C742.068115,859.453491 754.622925,855.601501 767.147705,851.654846 
	C781.247498,847.211975 794.255371,840.675842 806.076599,831.153809 
z"/>
<path fill="#000000" opacity="1.000000" stroke="none" 
	d="
M245.261719,868.743103 
	C230.902069,854.626709 218.176712,836.765259 218.022049,830.325989 
	C218.703995,830.630981 219.370010,830.767334 219.821548,831.154053 
	C234.901596,844.072388 253.296738,849.970032 271.754211,855.758118 
	C283.494843,859.439941 295.446564,862.596680 306.887299,867.056763 
	C333.280182,877.345642 354.190582,894.476440 368.607330,919.116211 
	C370.622131,922.559631 372.044739,926.266357 373.117035,931.260742 
	C322.930878,925.062317 280.836029,904.053528 245.261719,868.743103 
z"/>
<path fill="#000000" opacity="1.000000" stroke="none" 
	d="
M871.972656,260.790253 
	C873.748840,260.697479 875.173279,260.888367 876.390076,260.472168 
	C880.749573,258.980988 883.498779,259.986572 883.817993,265.682281 
	C888.855347,260.510956 894.485413,258.547241 900.932007,258.976929 
	C909.244934,259.531097 914.085571,264.429108 914.324768,272.710663 
	C914.603577,282.366119 914.785339,292.025513 914.885132,301.684479 
	C914.924500,305.491455 914.858398,309.155548 919.539307,310.454742 
	C920.587219,310.745575 921.237610,311.576385 920.971680,312.738892 
	C920.702271,313.916840 919.676941,314.219940 918.654175,314.220764 
	C912.658142,314.225433 906.661987,314.196716 900.666260,314.137146 
	C899.445618,314.125031 898.317139,313.749298 898.023560,312.343719 
	C897.734619,310.960236 898.463745,310.139740 899.701721,309.687714 
	C902.365173,308.715210 902.907166,306.530273 902.904907,304.055054 
	C902.895630,293.723907 903.040894,283.388885 902.802368,273.062866 
	C902.629883,265.594818 896.649231,262.667175 890.265747,266.721130 
	C885.253784,269.904053 883.672485,275.060699 883.436890,280.488464 
	C883.097534,288.306244 883.369629,296.149261 883.302856,303.980896 
	C883.278748,306.813629 884.303650,308.806976 887.079224,309.739441 
	C888.544128,310.231598 890.202942,310.857666 889.687683,312.748230 
	C889.184448,314.594696 887.315674,314.224121 885.854248,314.227203 
	C880.523376,314.238495 875.192383,314.225159 869.861633,314.191650 
	C868.387390,314.182404 866.628845,314.434204 866.069397,312.586304 
	C865.479065,310.635956 867.028381,310.058624 868.485596,309.480377 
	C871.027893,308.471497 871.740784,306.360413 871.757690,303.842285 
	C871.828308,293.347839 871.971558,282.853394 871.959412,272.359100 
	C871.955994,269.398224 870.990967,266.643768 867.887329,265.525635 
	C864.930237,264.460327 863.342957,266.403320 861.839783,268.617310 
	C860.337524,270.829834 858.127869,271.061768 855.603516,270.436615 
	C854.022034,270.044952 852.850281,268.425720 850.976868,268.928375 
	C849.934937,270.602142 851.054321,272.179321 851.195801,273.768585 
	C852.139771,284.375641 845.075684,292.663361 834.430420,293.326050 
	C833.433105,293.388184 832.408569,293.273651 831.438232,293.458893 
	C828.631714,293.994720 826.051147,295.214752 826.253906,298.482361 
	C826.450439,301.648956 829.349854,301.538788 831.637878,301.594330 
	C836.134277,301.703522 840.643555,301.444702 845.132568,301.655670 
	C850.877014,301.925659 856.090515,303.572296 858.592224,309.411926 
	C861.053711,315.157715 859.371948,321.594849 854.569519,326.280396 
	C847.651733,333.029724 838.923950,333.958038 829.955750,333.708527 
	C824.818359,333.565613 819.681335,333.145844 815.070068,330.211243 
	C807.991028,325.706085 807.765503,317.476929 815.036560,313.365204 
	C818.377380,311.475983 819.949463,310.250427 818.155396,305.846405 
	C816.012390,300.585754 818.475464,295.774597 823.023926,292.414215 
	C822.673828,290.465546 821.049927,289.985260 819.905945,289.174988 
	C813.469482,284.616028 811.804626,278.467529 813.799988,271.136322 
	C815.698547,264.160950 820.927551,260.930450 827.565125,259.693481 
	C832.849548,258.708618 838.177673,258.337738 843.153198,261.167572 
	C845.008240,262.222565 846.595825,261.167053 848.362671,260.669922 
	C853.493164,259.226318 858.982971,255.874695 863.312378,263.084381 
	C865.613098,260.152374 868.643127,260.842834 871.972656,260.790253 
M822.973877,311.994812 
	C822.094482,313.198242 821.210938,314.398712 820.336365,315.605652 
	C817.301392,319.794006 818.201599,324.207886 822.660706,327.017944 
	C828.229919,330.527557 840.797913,330.082825 846.008240,326.087646 
	C849.227966,323.618805 850.255615,320.120544 849.502869,316.305450 
	C848.777161,312.627106 845.592468,312.291199 842.521667,311.948700 
	C836.233093,311.247345 829.939514,311.188141 822.973877,311.994812 
M839.041016,281.366150 
	C840.027283,277.563965 839.710022,273.797913 838.805481,270.026672 
	C838.057739,266.909058 836.815735,264.388641 833.099854,264.109833 
	C829.141235,263.812775 826.869995,265.930634 825.513306,269.303833 
	C823.827148,273.496460 823.996277,277.761536 825.382812,281.995789 
	C826.482117,285.352844 828.488403,288.337433 832.165833,288.412720 
	C835.875732,288.488678 838.053894,285.780304 839.041016,281.366150 
z"/>
<path fill="#000000" opacity="1.000000" stroke="none" 
	d="
M552.474121,300.198486 
	C549.776794,291.098145 549.658508,282.413269 553.077576,273.903839 
	C558.079041,261.456268 570.607056,256.157928 583.396912,260.916382 
	C583.833801,261.078949 584.345764,261.039795 585.508545,261.173553 
	C586.503052,255.048920 586.459534,249.012711 585.370789,243.002625 
	C584.987854,240.888916 583.187744,239.750443 581.075439,239.304688 
	C579.775452,239.030365 578.927246,238.336380 579.113403,236.912247 
	C579.298035,235.499512 580.392334,235.012955 581.624695,234.969910 
	C585.937927,234.819260 590.234253,234.894501 594.544250,234.142914 
	C597.596619,233.610657 597.264404,236.414368 597.270447,238.305420 
	C597.306030,249.453720 597.237122,260.602295 597.243408,271.750793 
	C597.248779,281.235321 597.220764,290.721313 597.383972,300.203644 
	C597.455505,304.362213 597.526489,308.735199 602.921692,310.049713 
	C603.995483,310.311401 604.459534,311.272522 604.379272,312.384216 
	C604.269409,313.907410 603.141174,314.272369 601.917664,314.277039 
	C597.598083,314.293457 593.284424,314.038635 588.971863,314.726349 
	C586.718201,315.085693 585.901672,313.246429 585.513000,311.265167 
	C574.237244,320.322357 558.434875,316.722687 552.474121,300.198486 
M575.522095,264.272583 
	C570.330383,264.392578 567.314697,267.471161 565.399780,271.885712 
	C561.581177,280.689178 562.117920,289.829865 564.102661,298.839691 
	C565.235596,303.982361 567.932922,308.589691 573.846741,309.732544 
	C579.827393,310.888367 585.241577,306.365601 585.690002,299.224457 
	C586.190247,291.257660 586.071167,283.243591 586.001953,275.251984 
	C585.941711,268.298553 583.421448,265.608643 575.522095,264.272583 
z"/>
<path fill="#000000" opacity="1.000000" stroke="none" 
	d="
M284.916626,294.398499 
	C282.686340,289.970398 278.949677,287.742096 275.266113,285.437134 
	C269.631439,281.911316 263.511658,279.149780 258.585266,274.508942 
	C253.859009,270.056671 251.294174,264.854065 251.262482,258.201904 
	C251.182587,241.446762 271.396057,235.966476 282.511108,242.104797 
	C284.882080,243.414169 286.938568,245.521439 289.945190,242.554123 
	C291.445007,241.073898 293.111511,242.814545 293.127777,244.793121 
	C293.168793,249.786957 293.034241,254.783875 292.876160,259.776550 
	C292.838501,260.965546 292.356659,262.098877 290.888702,262.260651 
	C289.409241,262.423737 288.834717,261.416962 288.451477,260.249451 
	C287.256165,256.607666 286.235107,252.852966 283.672028,249.883347 
	C280.054626,245.692169 275.518341,243.667374 269.901978,244.736404 
	C265.277313,245.616653 262.643768,248.572754 261.612762,253.031036 
	C260.498657,257.848785 263.341614,262.917267 269.149078,266.502747 
	C274.958435,270.089355 280.952057,273.399292 286.594727,277.228607 
	C293.710846,282.057892 297.408264,288.884003 296.726257,297.662476 
	C295.799774,309.587433 284.902039,317.569427 272.183167,315.934906 
	C266.820587,315.245728 261.899353,313.400909 257.793365,310.980865 
	C255.307068,311.356110 255.425674,314.088013 253.263260,313.987488 
	C251.323456,313.450317 251.678833,311.729675 251.658783,310.334869 
	C251.577377,304.671326 251.573639,299.006287 251.592606,293.341980 
	C251.597321,291.931183 251.099106,290.054840 253.344559,289.868896 
	C255.601074,289.682068 255.998581,291.431335 256.250153,293.156189 
	C256.758148,296.639557 257.704102,299.997192 259.249023,303.160339 
	C262.458099,309.730865 270.940765,313.137848 277.927673,310.707794 
	C284.203308,308.525085 286.746490,302.858398 284.916626,294.398499 
z"/>
<path fill="#000000" opacity="1.000000" stroke="none" 
	d="
M351.180695,302.606750 
	C351.125061,306.282593 351.830811,308.999023 355.375671,310.154510 
	C356.510345,310.524353 357.379181,311.410095 357.103302,312.832458 
	C356.807953,314.355194 355.571777,314.452423 354.399017,314.430939 
	C350.408508,314.357880 346.428833,314.038971 342.462250,314.954681 
	C339.307709,315.682953 339.514862,312.467377 338.275452,311.000061 
	C336.607391,310.662659 335.889923,312.058197 334.859558,312.776184 
	C329.374268,316.598389 323.519012,317.427734 317.351227,314.805237 
	C310.952789,312.084686 308.982269,306.436371 308.743896,300.190979 
	C308.426514,291.873657 308.704620,283.535370 308.568329,275.208679 
	C308.500153,271.041443 308.548737,266.654358 303.261719,265.117096 
	C302.168945,264.799377 301.764618,263.835144 301.965790,262.729370 
	C302.179626,261.554108 303.106506,261.121124 304.148560,261.067657 
	C308.637177,260.837463 313.128265,260.531128 317.619324,260.516479 
	C320.672363,260.506500 320.183441,263.090668 320.194977,264.965912 
	C320.265625,276.459045 320.223145,287.952850 320.272736,299.446167 
	C320.292450,304.018707 320.371826,308.826874 325.784424,310.510162 
	C329.492523,311.663330 334.797302,308.103943 336.928741,302.910919 
	C340.303528,294.688751 339.570526,285.934570 339.417603,277.301483 
	C339.388214,275.642487 338.999298,273.990509 338.959381,272.330902 
	C338.880493,269.048950 337.913849,266.423859 334.420135,265.429596 
	C332.976746,265.018829 331.941589,264.223694 332.331299,262.591949 
	C332.659393,261.218170 333.923218,261.038025 335.120972,260.979645 
	C339.439972,260.769196 343.749420,260.618683 348.066162,260.140015 
	C351.689270,259.738312 351.052979,263.033783 351.070923,265.176453 
	C351.174103,277.501923 351.151428,289.828491 351.180695,302.606750 
z"/>
<path fill="#000000" opacity="1.000000" stroke="none" 
	d="
M625.156372,267.204041 
	C625.158386,277.664703 625.153687,287.652893 625.156250,297.641083 
	C625.156860,300.144745 625.276428,302.618622 626.284729,304.985474 
	C628.341553,309.813751 632.967773,311.257385 637.297363,308.267731 
	C640.764954,305.873291 642.754456,302.371704 643.509521,298.351044 
	C645.149292,289.619141 645.002075,280.803192 644.077026,271.999329 
	C643.749939,268.886749 642.856445,266.096497 639.229492,265.256897 
	C637.961609,264.963409 637.225708,264.006378 637.380127,262.668793 
	C637.585876,260.886047 639.007019,260.807770 640.375977,260.783386 
	C644.365479,260.712311 648.344360,260.786804 652.314026,260.043182 
	C656.232483,259.309143 656.124634,262.314087 656.137695,264.819702 
	C656.197754,276.305847 656.200989,287.792419 656.181519,299.278778 
	C656.173767,303.824921 655.747986,308.479736 661.450745,310.337036 
	C662.416870,310.651672 662.936890,311.724884 662.658386,312.818268 
	C662.363342,313.976318 661.334534,314.239258 660.303345,314.256256 
	C655.983582,314.327637 651.674438,314.130890 647.350098,314.732880 
	C643.585876,315.256897 645.338440,311.173584 643.308411,309.509705 
	C640.226379,312.134827 637.007019,314.857117 632.606567,315.663208 
	C624.199097,317.203339 616.898193,312.741180 614.686646,304.474060 
	C613.019226,298.240814 613.873779,291.890442 613.696838,285.590454 
	C613.575439,281.265442 613.682983,276.934418 613.646057,272.606445 
	C613.617188,269.221313 612.782532,266.291443 609.012268,265.265869 
	C607.770691,264.928131 606.847473,264.353729 606.928711,262.915710 
	C607.013733,261.409454 608.138062,261.012207 609.356750,260.944489 
	C613.674744,260.704498 618.018860,260.166138 622.309875,260.433838 
	C626.433655,260.691040 624.740112,264.361481 625.156372,267.204041 
z"/>
<path fill="#000000" opacity="1.000000" stroke="none" 
	d="
M730.338257,243.787689 
	C720.756653,243.276047 713.708862,247.550171 710.206604,255.909424 
	C704.397522,269.774841 704.621460,283.828552 709.697876,297.779999 
	C712.889282,306.550873 720.344849,311.159912 729.525940,310.803741 
	C738.453247,310.457428 744.748169,305.371338 747.525085,296.144714 
	C748.146606,294.079529 748.437195,291.916901 748.978760,289.824646 
	C749.299072,288.587189 750.115662,287.767761 751.521484,287.979218 
	C752.719238,288.159393 753.183655,289.114044 753.194031,290.147827 
	C753.262817,296.972351 753.355530,303.799011 753.243225,310.621674 
	C753.205505,312.916412 751.134888,313.869873 749.960999,312.114594 
	C747.176453,307.950745 744.719788,310.369232 742.012939,311.786499 
	C728.630249,318.793579 713.971436,316.739807 703.495178,306.156647 
	C696.178040,298.764740 693.332458,289.335205 693.198242,279.296082 
	C693.025146,266.348083 696.293091,254.312607 707.234192,246.124100 
	C718.184387,237.928787 730.106995,237.014862 742.379089,243.464752 
	C743.691284,244.154388 745.023132,244.806473 746.097046,245.350037 
	C747.594421,245.058609 747.870422,243.981583 748.443726,243.203461 
	C749.207458,242.166824 750.188293,241.649307 751.463318,241.962479 
	C753.147400,242.376160 753.228027,243.810883 753.239197,245.137222 
	C753.288452,250.963806 753.298157,256.791046 753.267639,262.617767 
	C753.260620,263.966034 753.069824,265.483368 751.442078,265.776520 
	C749.540283,266.118988 748.873047,264.722015 748.476990,263.138794 
	C747.668640,259.907227 746.767639,256.730804 744.983154,253.836258 
	C741.650696,248.431152 737.045410,244.957916 730.338257,243.787689 
z"/>
<path fill="#000000" opacity="1.000000" stroke="none" 
	d="
M92.669128,245.035141 
	C87.734123,245.931793 86.150650,248.653763 86.200005,253.254959 
	C86.374947,269.562103 86.216614,285.872528 86.285957,302.181274 
	C86.313942,308.760010 87.234215,309.598633 93.794167,309.867462 
	C95.954323,309.955933 98.121574,309.980286 100.282539,309.921692 
	C111.090149,309.628662 114.362022,306.645569 115.904175,295.994080 
	C116.191666,294.008453 115.958649,290.958771 119.067085,291.342438 
	C121.725868,291.670593 120.963051,294.415833 121.015846,296.306671 
	C121.150497,301.128815 121.112961,305.957184 121.324600,310.775146 
	C121.436249,313.316895 120.545219,314.267487 117.945381,314.417908 
	C102.319778,315.322021 86.700592,314.396423 71.079651,314.409058 
	C69.775452,314.410126 68.295654,314.489868 67.920296,312.707855 
	C67.534462,310.876221 68.908630,310.477081 70.183037,310.028748 
	C73.759857,308.770355 74.698814,305.959564 74.694710,302.524841 
	C74.675240,286.215698 74.644440,269.906433 74.703690,253.597488 
	C74.717926,249.677841 73.439537,246.768204 69.523933,245.477356 
	C68.350655,245.090591 67.208382,244.668060 67.369812,243.198853 
	C67.564285,241.428955 69.028152,241.244324 70.380432,241.320343 
	C77.197144,241.703583 84.000206,241.713364 90.819588,241.237549 
	C93.274033,241.066299 94.038902,242.577499 92.669128,245.035141 
z"/>
<path fill="#000000" opacity="1.000000" stroke="none" 
	d="
M164.562851,283.396057 
	C158.282074,283.400330 152.452515,283.345764 146.624588,283.420502 
	C139.409500,283.513031 138.560257,284.475555 139.329803,291.698486 
	C139.895096,297.004578 142.090027,301.693695 145.738297,305.501862 
	C151.598618,311.619049 161.508347,309.761505 166.525925,301.814301 
	C167.460373,300.334290 168.096313,297.918091 170.462662,299.064240 
	C173.117401,300.350159 171.526901,302.589966 170.772812,304.264282 
	C164.567551,318.041565 144.704529,320.378632 134.128433,308.627777 
	C124.297302,297.704620 124.453407,276.900909 134.469467,266.210358 
	C142.511795,257.626465 160.182312,255.126907 167.709213,266.948334 
	C169.538971,269.822021 170.602600,272.959564 171.185257,276.228546 
	C172.313675,282.559448 171.522705,283.380707 164.562851,283.396057 
M158.925400,274.596344 
	C157.895538,267.672760 154.433411,263.818939 149.692322,264.318665 
	C144.272888,264.889893 139.927078,271.596985 140.381180,279.009155 
	C145.247665,279.642029 150.179916,279.775940 155.126465,279.550079 
	C157.710251,279.432129 159.120575,278.124268 158.925400,274.596344 
z"/>
<path fill="#000000" opacity="1.000000" stroke="none" 
	d="
M766.080872,260.764191 
	C770.562256,260.731506 774.559326,260.677704 778.556458,260.670135 
	C779.921204,260.667572 781.373352,260.812408 781.731934,262.446411 
	C782.086670,264.063202 780.992798,264.953583 779.603821,265.321045 
	C776.720581,266.083771 775.861877,267.711182 776.928589,270.527771 
	C780.334839,279.522278 783.677246,288.540924 787.041199,297.541931 
	C789.037292,297.115082 789.165894,295.577576 789.592407,294.461914 
	C792.501526,286.852448 795.337158,279.214264 798.120789,271.557800 
	C799.280701,268.367523 798.567200,265.990234 794.885864,265.130157 
	C793.450989,264.794922 791.678528,264.567535 792.120483,262.409332 
	C792.517578,260.470581 794.203064,260.498108 795.708008,260.508759 
	C799.704163,260.536987 803.699829,260.636261 807.695923,260.686035 
	C808.901306,260.701050 810.092041,260.705200 810.465149,262.188568 
	C810.750549,263.323273 810.177124,264.191193 809.306396,264.732819 
	C804.805481,267.532623 803.603027,272.398315 801.850037,276.825348 
	C796.335144,290.752502 790.992126,304.747772 785.603394,318.724701 
	C784.218079,322.317841 782.467041,325.686127 780.122131,328.762604 
	C776.906921,332.980927 772.530151,334.027924 767.649780,333.196320 
	C763.614197,332.508698 761.553345,329.682587 761.874451,325.692566 
	C762.155579,322.200592 764.166687,319.697449 767.993469,319.720978 
	C772.117249,319.746338 773.838074,322.277283 773.908875,326.196411 
	C773.916382,326.611572 774.252502,327.020782 774.448425,327.460205 
	C780.474487,323.213104 783.167969,315.038452 780.617676,308.954987 
	C775.662354,297.134766 770.731079,285.304230 765.705750,273.513824 
	C764.283447,270.176819 763.060730,266.631683 759.316589,264.931641 
	C758.184082,264.417419 757.632324,263.313812 758.125977,261.999695 
	C758.552917,260.863129 759.603943,260.749237 760.601807,260.726440 
	C762.265564,260.688416 763.931519,260.744629 766.080872,260.764191 
z"/>
<path fill="#000000" opacity="1.000000" stroke="none" 
	d="
M440.437683,286.549835 
	C440.097412,292.411774 441.171783,297.549347 444.082520,302.217987 
	C449.723022,311.264862 461.165070,311.403320 467.057129,302.517181 
	C467.516602,301.824219 467.930786,301.100952 468.397247,300.412933 
	C469.213226,299.209351 470.257568,298.379944 471.742096,299.174500 
	C473.376648,300.049316 472.646576,301.462952 472.293854,302.700317 
	C469.666382,311.917450 457.901215,318.155579 447.688507,315.796967 
	C440.197113,314.066803 434.905548,309.573090 431.557861,302.785889 
	C426.406342,292.341644 426.588898,272.064575 438.823822,263.552094 
	C446.324951,258.333130 454.432068,258.134125 462.508545,261.555206 
	C469.867767,264.672516 471.821564,271.392700 472.382111,278.716827 
	C472.643585,282.133636 471.277832,283.514618 467.798035,283.440674 
	C460.812134,283.292175 453.819092,283.344086 446.831818,283.469391 
	C444.452606,283.512054 441.658661,283.034515 440.437683,286.549835 
M441.656433,274.110779 
	C440.668640,277.871490 442.559082,279.457520 446.006561,279.586060 
	C449.659790,279.722290 453.321289,279.633423 456.979187,279.648041 
	C459.805908,279.659302 460.692200,278.059113 460.646454,275.471649 
	C460.563232,270.763580 457.214417,265.421936 453.332458,264.547546 
	C448.117706,263.373016 445.362335,266.711700 443.118134,270.673737 
	C442.630066,271.535400 442.307648,272.490906 441.656433,274.110779 
z"/>
<path fill="#000000" opacity="1.000000" stroke="none" 
	d="
M956.965942,283.560791 
	C952.063721,283.479767 947.568359,283.538879 943.082825,283.355988 
	C939.734985,283.219421 938.111206,284.412109 938.325562,287.951660 
	C938.631042,292.995789 939.488953,297.824493 942.333130,302.150421 
	C947.913940,310.638702 958.183228,311.046265 964.430542,302.987457 
	C967.202515,299.411713 967.202576,299.411774 969.869812,299.109009 
	C970.475891,304.357910 966.478760,310.451141 960.502930,313.388000 
	C948.328247,319.371307 934.192566,313.927673 929.172241,301.322540 
	C923.859070,287.982086 926.417664,272.825104 935.350525,264.741699 
	C942.460510,258.307861 950.997498,258.073242 959.239807,260.797577 
	C967.261597,263.449005 969.627686,270.874939 970.561462,278.700348 
	C970.960815,282.047943 970.108826,283.778320 966.349548,283.511993 
	C963.375671,283.301300 960.369019,283.551453 956.965942,283.560791 
M958.546387,277.153290 
	C958.655518,273.749817 957.917236,270.530457 956.089783,267.664490 
	C953.740173,263.979858 949.195068,262.927612 945.670288,265.249878 
	C941.799316,267.800232 940.095581,271.714600 939.349243,276.111481 
	C939.111084,277.514221 939.460083,279.256805 941.002441,279.248016 
	C946.794678,279.215149 952.796448,281.395172 958.546387,277.153290 
z"/>
<path fill="#000000" opacity="1.000000" stroke="none" 
	d="
M216.373169,305.897400 
	C212.344345,314.649841 202.682556,318.056763 192.363876,314.895721 
	C189.273697,313.949097 186.333328,311.135345 182.707626,314.271393 
	C181.503845,315.312592 180.212341,313.659760 180.179428,312.201996 
	C180.059250,306.878662 180.059448,301.551422 180.108261,296.226501 
	C180.119003,295.055084 180.526337,293.870453 181.992645,293.659454 
	C183.713730,293.411743 184.346741,294.567261 184.737167,295.932068 
	C185.376587,298.167114 185.899658,300.438416 186.615295,302.647919 
	C187.285751,304.718018 188.317612,306.610046 189.884918,308.189240 
	C193.808807,312.142761 200.077240,312.720856 203.375946,309.395233 
	C207.008423,305.733093 206.459427,299.440033 201.640121,295.819519 
	C197.398590,292.633087 192.641739,290.137238 188.147156,287.281769 
	C182.424271,283.645905 179.801437,278.534088 180.466919,271.655914 
	C180.907471,267.102570 182.866760,263.722260 186.983505,261.772614 
	C193.138992,258.857391 199.468567,258.372772 205.768463,261.231293 
	C207.742493,262.126984 209.052185,262.489197 211.095993,260.944366 
	C213.924652,258.806335 215.568939,260.516083 215.159164,263.650635 
	C214.661774,267.455444 214.271362,271.243317 214.257172,275.079712 
	C214.252197,276.425873 214.082077,277.900543 212.272705,277.991364 
	C210.529526,278.078857 210.126205,276.664246 209.832428,275.351562 
	C208.802795,270.750427 206.834061,266.889343 202.120819,265.044098 
	C197.536713,263.249420 192.816452,264.334747 191.081726,267.886841 
	C188.891190,272.372375 191.602814,275.227417 194.965347,277.438477 
	C199.131836,280.178192 203.503616,282.606445 207.794067,285.156860 
	C215.493530,289.733704 218.463638,296.687164 216.373169,305.897400 
z"/>
<path fill="#000000" opacity="1.000000" stroke="none" 
	d="
M506.131378,299.273682 
	C503.547180,295.069672 499.554047,293.214050 495.882019,290.965729 
	C492.197693,288.709808 488.242157,286.788177 485.462402,283.350983 
	C481.583191,278.554352 480.564484,273.203613 483.198425,267.492065 
	C485.605927,262.271484 490.032623,260.032318 495.591705,259.678375 
	C500.846710,259.343842 505.880524,259.981567 510.078674,262.977478 
	C511.776093,262.735718 512.052124,261.365967 512.913879,260.643463 
	C515.150024,258.768524 516.453613,259.862946 516.466125,262.235626 
	C516.489685,266.720123 516.158752,271.210052 515.864624,275.690491 
	C515.776550,277.032562 515.331665,278.429810 513.585632,278.458252 
	C511.832764,278.486786 511.602112,276.974335 511.127930,275.755829 
	C510.287445,273.595947 509.696747,271.293243 508.557312,269.304871 
	C506.183228,265.161987 501.037323,263.215546 496.476288,264.412567 
	C491.784821,265.643829 490.089630,270.852875 493.317627,274.540222 
	C496.433167,278.099091 500.646729,280.224213 504.609924,282.659149 
	C507.435242,284.394989 510.535370,285.840271 512.972656,288.019379 
	C518.647278,293.092865 520.142822,301.264435 517.015808,307.574402 
	C514.240479,313.174500 505.388702,317.173065 498.049347,315.903137 
	C495.289520,315.425598 492.623138,314.396301 489.923615,313.587006 
	C488.706268,313.222107 487.556091,312.032532 486.218903,313.100616 
	C481.858124,316.583923 481.705383,313.462708 481.686096,310.223022 
	C481.659363,305.730621 481.667908,301.237457 481.727478,296.745514 
	C481.742615,295.602783 481.799561,294.267914 483.384949,294.118011 
	C484.888245,293.975891 485.340454,295.171509 485.677246,296.296387 
	C486.009369,297.405670 486.135651,298.575378 486.446045,299.692535 
	C487.254120,302.600555 488.366730,305.371887 490.466827,307.623230 
	C493.853973,311.254272 499.322479,312.545166 503.171906,310.484894 
	C507.866913,307.972076 507.387878,303.849945 506.131378,299.273682 
z"/>
<path fill="#000000" opacity="1.000000" stroke="none" 
	d="
M410.586884,259.447388 
	C413.778351,261.606842 417.027069,260.479950 420.119873,260.758911 
	C421.844330,260.914490 423.690460,260.913483 423.545349,263.307648 
	C423.419830,265.378632 421.681183,265.252777 420.176208,265.382080 
	C409.100891,266.333649 409.075195,266.340485 409.028137,277.683807 
	C408.994965,285.674164 409.055298,293.664856 409.054047,301.655396 
	C409.053467,305.385193 409.781616,309.222229 413.831299,309.988983 
	C417.975372,310.773651 419.863647,307.367615 421.007294,303.814148 
	C421.261780,303.023468 421.571716,302.247498 421.904022,301.485687 
	C422.406921,300.332611 423.137939,299.475281 424.573334,299.837799 
	C426.030914,300.205933 426.130096,301.285553 426.066071,302.561920 
	C425.704712,309.769440 419.648895,315.883301 412.506073,316.194702 
	C405.067841,316.519012 398.895966,311.464233 397.812744,304.020050 
	C396.294189,293.583862 397.114258,283.074768 397.102936,272.600891 
	C397.098083,268.094818 396.319000,265.011597 390.949615,265.313232 
	C389.596130,265.389252 388.128326,265.055511 388.018036,263.305969 
	C387.888123,261.245392 389.485107,260.724335 391.025726,260.866150 
	C396.623962,261.381378 397.353546,258.005768 397.040253,253.670517 
	C397.004333,253.173477 397.026031,252.672012 397.026398,252.172607 
	C397.030151,246.685196 401.995728,243.145111 407.375031,244.716293 
	C409.373444,245.300018 409.118866,246.860443 409.219513,248.319107 
	C409.469025,251.934769 408.573120,255.666595 410.586884,259.447388 
z"/>
<path fill="#000000" opacity="1.000000" stroke="none" 
	d="
M367.597961,267.678040 
	C366.273499,265.109894 361.456146,266.138947 362.365601,262.846191 
	C363.279938,259.535889 366.930664,261.378052 369.371735,261.076019 
	C372.645111,260.671051 375.956207,260.570862 379.201721,260.343292 
	C380.829102,262.141541 380.240173,264.231934 380.248352,266.151947 
	C380.299408,278.126373 380.270599,290.101166 380.264984,302.075836 
	C380.263306,305.692596 380.397797,309.205109 384.885925,310.337555 
	C385.979187,310.613403 386.497772,311.483978 386.372894,312.615784 
	C386.201904,314.165985 384.996918,314.341339 383.800385,314.343170 
	C377.481201,314.352783 371.161804,314.342377 364.842773,314.297150 
	C363.590729,314.288208 362.520630,313.763885 362.279205,312.400696 
	C362.026642,310.974579 362.936371,310.186493 364.173798,309.927826 
	C367.031403,309.330353 368.589691,307.542145 368.690002,304.742554 
	C369.106720,293.109619 369.193359,281.473083 368.545868,269.843750 
	C368.511139,269.220306 368.068970,268.619537 367.597961,267.678040 
z"/>
<path fill="#000000" opacity="1.000000" stroke="none" 
	d="
M367.494263,239.919724 
	C370.859863,235.847763 374.618347,234.951797 377.994446,237.382446 
	C381.252258,239.727936 381.998657,242.974762 380.271423,246.587952 
	C378.434814,250.429855 375.076111,250.952820 371.425354,249.950195 
	C367.508087,248.874344 366.226715,245.609528 367.494263,239.919724 
z"/>
</svg>